# xmcd
#
# Track frame offsets:
#	150
#	10786
#	21484
#	32762
#	43963
#	54339
#	66086
#	76063
#	88537
#	98035
#	110226
#	120749
#	131759
#	146083
#	159035
#	165168
#	178540
#	191287
#	203376
#	215293
#	227008
#	237984
#	250819
#	263001
#	275115
#
# Disc length: 3815
#
# Revision: 1
# Processed by: cddbd v1.5.1PL0 Copyright (c) Steve Scherf et al.
# Submitted via: EasyCDDAExtractor 4.6.0.1
# Normalized: r0:TDELIM( - )
#
DISCID=4c0ee519
DTITLE=Various Artist - Forever DooWop  Vol 04
DYEAR=1900
DGENRE=Blues
TTITLE0=Satellites (Bobby Day and the) - Heavenly Angel
TTITLE1=El Jays (Leo Wright and the) - It Is I
TTITLE2=Plurals - I'm Sold
TTITLE3=Chords - Sh-Boom
TTITLE4=Turbans - This Is My story
TTITLE5=Avons - Whisper
TTITLE6=Five Keys - She's The Most
TTITLE7=Halos (Curtis Lee and the) - Pretty Little Angel Eyes
TTITLE8=Robins - Cherry Lips
TTITLE9=Del Vikings - Come Go With Me
TTITLE10=Six Teens - A Casual Look
TTITLE11=Penguins - Don't Do It
TTITLE12=Five Blue Notes - The Beat Of Our Hearts
TTITLE13=Limelites (Shep and the) - Daddy's Home
TTITLE14=Quadrells - Come To Me
TTITLE15=Sunbeams - Please Say You'll Be Mine
TTITLE16=Rivieras - Count Every Star
TTITLE17=Strollers - There's No One But You
TTITLE18=Dells - Why Do You Have To Go
TTITLE19=Drifters - Nobody But Me
TTITLE20=Vocaleers - I Need Your Love So Bad
TTITLE21=Continentals - Dear Lord
TTITLE22=Ducanes - I'm So Happy
TTITLE23=Brenton Wood - Me And You
TTITLE24=Crests - Trouble In Paradise
EXTD=
EXTT0=
EXTT1=
EXTT2=
EXTT3=
EXTT4=
EXTT5=
EXTT6=
EXTT7=
EXTT8=
EXTT9=
EXTT10=
EXTT11=
EXTT12=
EXTT13=
EXTT14=
EXTT15=
EXTT16=
EXTT17=
EXTT18=
EXTT19=
EXTT20=
EXTT21=
EXTT22=
EXTT23=
EXTT24=
PLAYORDER=
